<svg width="319" height="54" viewBox="0 0 319 54" fill="none" xmlns="http://www.w3.org/2000/svg">
<g clip-path="url(#clip0_306_2192)">
<mask id="mask0_306_2192" style="mask-type:luminance" maskUnits="userSpaceOnUse" x="0" y="0" width="319" height="54">
<path d="M318.811 0H0V53.77H318.811V0Z" fill="white"/>
</mask>
<g mask="url(#mask0_306_2192)">
<path d="M57.2716 0.943359H0V12.2627H57.2716V0.943359Z" fill="#111111"/>
<path d="M36.2724 3.77344H21.9531V52.8257H36.2724V3.77344Z" fill="#111111"/>
<path d="M76.3622 3.77344H62.043V52.8257H76.3622V3.77344Z" fill="#111111"/>
<mask id="mask1_306_2192" style="mask-type:luminance" maskUnits="userSpaceOnUse" x="-165" y="-199" width="649" height="453">
<path d="M483.592 -198.426H-164.785V253.727H483.592V-198.426Z" fill="white"/>
</mask>
<g mask="url(#mask1_306_2192)">
<path d="M114.541 18.8628C114.541 9.3831 106.891 1.2159 97.3615 0.962699V0.939453H62.043V12.2588H94.9847C98.4099 12.2588 101.189 15.4755 101.189 18.8628C101.189 22.6351 98.4099 25.4668 94.9847 25.4668H62.043V34.9001H97.3615V34.882C106.891 34.6236 114.541 28.3503 114.541 18.8628Z" fill="#111111"/>
</g>
<path d="M90.6794 33.9629H73.5L98.3161 52.8293H118.361L90.6794 33.9629Z" fill="#111111"/>
<mask id="mask2_306_2192" style="mask-type:luminance" maskUnits="userSpaceOnUse" x="-165" y="-199" width="649" height="453">
<path d="M483.592 -198.426H-164.785V253.727H483.592V-198.426Z" fill="white"/>
</mask>
<g mask="url(#mask2_306_2192)">
<path d="M148.977 41.9812C139.51 41.9812 131.837 35.0052 131.837 26.4168C131.837 17.8284 139.51 10.855 148.977 10.855C158.444 10.855 166.117 17.831 166.117 26.4194C166.117 35.0077 158.444 41.9838 148.977 41.9838M148.977 0.00585938C130.365 0.00585938 118.911 12.0435 118.911 26.8767C118.911 41.7099 130.368 53.7631 148.977 53.7631C167.587 53.7631 179.043 41.7254 179.043 26.8767C179.043 12.028 167.587 0.00585938 148.977 0.00585938Z" fill="#111111"/>
<path d="M213.332 41.9812C203.866 41.9812 196.192 35.0052 196.192 26.4168C196.192 17.8284 203.866 10.855 213.332 10.855C222.799 10.855 230.473 17.831 230.473 26.4194C230.473 35.0077 222.799 41.9838 213.332 41.9838M213.332 0.00585938C194.72 0.00585938 183.267 12.0435 183.267 26.8767C183.267 41.7099 194.723 53.7631 213.332 53.7631C231.942 53.7631 243.398 41.7254 243.398 26.8767C243.398 12.028 231.942 0.00585938 213.332 0.00585938Z" fill="#111111"/>
<path d="M271.562 41.5066H262.496V12.2641H271.562C281.842 12.2641 289.22 16.982 289.22 26.8853C289.22 36.7887 281.842 41.5066 271.562 41.5066ZM302.345 27.5932C302.345 13.3828 291.131 0.955078 272.041 0.955078H248.176V52.8286H272.041C292.086 52.8286 302.345 41.8064 302.345 27.6036" fill="#111111"/>
<path d="M312.824 53.4631C314.009 53.4631 315.164 53.1164 316.15 52.4668C317.133 51.817 317.899 50.8938 318.354 49.8133C318.806 48.7331 318.924 47.544 318.694 46.3971C318.464 45.2499 317.894 44.196 317.057 43.3687C316.22 42.5414 315.156 41.9779 313.996 41.749C312.835 41.5203 311.632 41.6366 310.537 42.0836C309.444 42.5303 308.51 43.2876 307.852 44.2593C307.193 45.2313 306.84 46.3744 306.84 47.5438C306.84 49.1124 307.47 50.6166 308.591 51.7258C309.716 52.8347 311.237 53.4579 312.824 53.4579" fill="#111111"/>
</g>
</g>
</g>
<defs>
<clipPath id="clip0_306_2192">
<rect width="318.96" height="54" fill="white"/>
</clipPath>
</defs>
</svg>
